<svg width="17" height="16" viewBox="0 0 17 16" fill="none" xmlns="http://www.w3.org/2000/svg">
<path fill-rule="evenodd" clip-rule="evenodd" d="M5.96924 0H11.9692C14.7302 0 16.9692 2.14752 16.9692 4.79571V10.5506C16.9692 13.1988 14.7302 15.3463 11.9692 15.3463H5.96924C3.20824 15.3463 0.969238 13.1988 0.969238 10.5506V4.79571C0.969238 2.14752 3.20824 0 5.96924 0ZM11.9692 13.9075C13.8992 13.9075 15.4692 12.4017 15.4692 10.5505V4.79568C15.4692 2.94454 13.8992 1.43868 11.9692 1.43868H5.96924C4.03924 1.43868 2.46924 2.94454 2.46924 4.79568V10.5505C2.46924 12.4017 4.03924 13.9075 5.96924 13.9075H11.9692Z" fill="white"/>
<path fill-rule="evenodd" clip-rule="evenodd" d="M4.96924 7.67312C4.96924 5.55437 6.76024 3.83655 8.96924 3.83655C11.1782 3.83655 12.9692 5.55437 12.9692 7.67312C12.9692 9.79186 11.1782 11.5097 8.96924 11.5097C6.76024 11.5097 4.96924 9.79186 4.96924 7.67312ZM6.46924 7.67311C6.46924 8.99481 7.59124 10.071 8.96924 10.071C10.3472 10.071 11.4692 8.99481 11.4692 7.67311C11.4692 6.35045 10.3472 5.27525 8.96924 5.27525C7.59124 5.27525 6.46924 6.35045 6.46924 7.67311Z" fill="white"/>
<ellipse cx="13.2693" cy="3.54882" rx="0.533" ry="0.511223" fill="white"/>
</svg>
