<svg width="21" height="16" viewBox="0 0 21 16" fill="none" xmlns="http://www.w3.org/2000/svg">
<path d="M20.5248 1.80415C19.7976 2.11011 19.0227 2.31292 18.2148 2.41139C19.0459 1.93544 19.6802 1.18753 19.9785 0.286038C19.2036 0.729162 18.348 1.04216 17.4362 1.21683C16.7005 0.465397 15.6518 0 14.5078 0C12.2882 0 10.5013 1.72795 10.5013 3.84627C10.5013 4.15106 10.5282 4.44413 10.5942 4.72314C7.26124 4.56722 4.31202 3.03505 2.33079 0.701027C1.9849 1.27662 1.78202 1.93544 1.78202 2.64468C1.78202 3.97639 2.49702 5.15688 3.56279 5.84033C2.91868 5.8286 2.28679 5.64924 1.75146 5.36672C1.75146 5.37845 1.75146 5.39369 1.75146 5.40893C1.75146 7.27755 3.14113 8.82965 4.96346 9.1872C4.63713 9.27278 4.28146 9.31381 3.91235 9.31381C3.65568 9.31381 3.39657 9.29974 3.15335 9.24816C3.67279 10.771 5.14679 11.8905 6.89946 11.9268C5.53546 12.9502 3.80357 13.5669 1.92868 13.5669C1.5999 13.5669 1.28457 13.5528 0.969238 13.5141C2.74513 14.6125 4.84979 15.2397 7.11946 15.2397C14.4968 15.2397 18.5301 9.37828 18.5301 4.2976C18.5301 4.12762 18.524 3.9635 18.5155 3.80055C19.3111 3.25895 19.9797 2.58255 20.5248 1.80415Z" fill="white"/>
</svg>
